<mxfile host="app.diagrams.net" modified="2023-03-24T17:06:27.162Z" agent="Mozilla/5.0 (Windows NT 10.0; Win64; x64) AppleWebKit/537.36 (KHTML, like Gecko) Chrome/111.0.0.0 Safari/537.36" etag="rXjGRCbA5lUEOujMAvz2" version="21.1.0" type="github" pages="2">
  <diagram name="Página-1" id="lJ0Gdcr0FVHyZRpdmnRm">
    <mxGraphModel dx="1434" dy="1933" grid="1" gridSize="10" guides="1" tooltips="1" connect="1" arrows="1" fold="1" page="1" pageScale="1" pageWidth="827" pageHeight="1169" math="0" shadow="0">
      <root>
        <mxCell id="0" />
        <mxCell id="1" parent="0" />
        <mxCell id="YMuIUM92OhcewyhlncTj-1" value="projeto" style="html=1;overflow=block;blockSpacing=1;whiteSpace=wrap;fontSize=16.7;fontColor=#333333;spacing=3.8;strokeColor=#5e5e5e;strokeOpacity=100;rounded=1;absoluteArcSize=1;arcSize=9;strokeWidth=2.3;lucidId=b0jIdRNXW_Y9;" parent="1" vertex="1">
          <mxGeometry x="150" y="600" width="118" height="121" as="geometry" />
        </mxCell>
        <mxCell id="YMuIUM92OhcewyhlncTj-2" value="" style="html=1;jettySize=18;whiteSpace=wrap;fontSize=13;strokeColor=#5E5E5E;strokeWidth=1.5;rounded=1;arcSize=12;edgeStyle=orthogonalEdgeStyle;startArrow=none;endArrow=none;exitX=-0.009;exitY=0.5;exitPerimeter=0;lucidId=~8jIGwIqMfgq;" parent="1" source="YMuIUM92OhcewyhlncTj-1" edge="1">
          <mxGeometry width="100" height="100" relative="1" as="geometry">
            <Array as="points" />
            <mxPoint x="90" y="660" as="targetPoint" />
          </mxGeometry>
        </mxCell>
        <mxCell id="YMuIUM92OhcewyhlncTj-3" value="setor" style="text;html=1;resizable=0;labelBackgroundColor=default;align=center;verticalAlign=middle;fontStyle=1;fontColor=#333333;fontSize=13.3;" parent="YMuIUM92OhcewyhlncTj-2" vertex="1">
          <mxGeometry relative="1" as="geometry">
            <mxPoint y="-10" as="offset" />
          </mxGeometry>
        </mxCell>
        <mxCell id="YMuIUM92OhcewyhlncTj-4" value="" style="html=1;jettySize=18;whiteSpace=wrap;fontSize=13;strokeColor=#5E5E5E;strokeWidth=1.5;rounded=1;arcSize=12;edgeStyle=orthogonalEdgeStyle;startArrow=none;endArrow=none;exitX=-0.009;exitY=0.124;exitPerimeter=0;lucidId=O9jIyGu8p0MI;" parent="1" source="YMuIUM92OhcewyhlncTj-1" edge="1">
          <mxGeometry width="100" height="100" relative="1" as="geometry">
            <Array as="points" />
            <mxPoint x="90" y="615" as="targetPoint" />
          </mxGeometry>
        </mxCell>
        <mxCell id="YMuIUM92OhcewyhlncTj-5" value="id" style="text;html=1;resizable=0;labelBackgroundColor=default;align=center;verticalAlign=middle;fontStyle=1;fontColor=#333333;fontSize=13.3;" parent="YMuIUM92OhcewyhlncTj-4" vertex="1">
          <mxGeometry relative="1" as="geometry">
            <mxPoint y="-15" as="offset" />
          </mxGeometry>
        </mxCell>
        <mxCell id="YMuIUM92OhcewyhlncTj-6" value="" style="html=1;overflow=block;blockSpacing=1;whiteSpace=wrap;ellipse;fontSize=13;spacing=3.8;strokeColor=#5e5e5e;strokeOpacity=100;fillOpacity=100;rounded=1;absoluteArcSize=1;arcSize=9;fillColor=#e08fff;strokeWidth=2.3;lucidId=T9jIQmb65wuV;" parent="1" vertex="1">
          <mxGeometry x="60" y="601" width="30" height="30" as="geometry" />
        </mxCell>
        <mxCell id="YMuIUM92OhcewyhlncTj-7" value="" style="html=1;overflow=block;blockSpacing=1;whiteSpace=wrap;ellipse;fontSize=13;spacing=3.8;strokeColor=#5e5e5e;strokeOpacity=100;fillOpacity=100;rounded=1;absoluteArcSize=1;arcSize=9;fillColor=#b8f5ed;strokeWidth=2.3;lucidId=i~jI2AtwTFMu;" parent="1" vertex="1">
          <mxGeometry x="60" y="646" width="30" height="30" as="geometry" />
        </mxCell>
        <mxCell id="YMuIUM92OhcewyhlncTj-8" value="funcionario" style="html=1;overflow=block;blockSpacing=1;whiteSpace=wrap;fontSize=16.7;fontColor=#333333;spacing=3.8;strokeColor=#5e5e5e;strokeOpacity=100;rounded=1;absoluteArcSize=1;arcSize=9;strokeWidth=2.3;lucidId=F~jI04aDoL8M;" parent="1" vertex="1">
          <mxGeometry x="751" y="600" width="118" height="121" as="geometry" />
        </mxCell>
        <mxCell id="YMuIUM92OhcewyhlncTj-9" value="" style="html=1;jettySize=18;whiteSpace=wrap;fontSize=13;strokeColor=#5E5E5E;strokeWidth=1.5;rounded=1;arcSize=12;edgeStyle=orthogonalEdgeStyle;startArrow=none;endArrow=none;exitX=-0.009;exitY=0.502;exitPerimeter=0;entryX=1.038;entryY=0.5;entryPerimeter=0;lucidId=F~jIgew0bvit;" parent="1" source="YMuIUM92OhcewyhlncTj-8" edge="1">
          <mxGeometry width="100" height="100" relative="1" as="geometry">
            <Array as="points" />
            <mxPoint x="692.1399999999999" y="661" as="targetPoint" />
          </mxGeometry>
        </mxCell>
        <mxCell id="YMuIUM92OhcewyhlncTj-10" value="salario" style="text;html=1;resizable=0;labelBackgroundColor=default;align=center;verticalAlign=middle;fontStyle=1;fontColor=#333333;fontSize=13.3;" parent="YMuIUM92OhcewyhlncTj-9" vertex="1">
          <mxGeometry x="0.12478469840815198" relative="1" as="geometry">
            <mxPoint x="4" y="-15" as="offset" />
          </mxGeometry>
        </mxCell>
        <mxCell id="YMuIUM92OhcewyhlncTj-11" value="" style="html=1;jettySize=18;whiteSpace=wrap;fontSize=13;strokeColor=#5E5E5E;strokeWidth=1.5;rounded=1;arcSize=12;edgeStyle=orthogonalEdgeStyle;startArrow=none;endArrow=none;exitX=-0.009;exitY=0.809;exitPerimeter=0;lucidId=F~jIYuqvldBp;" parent="1" source="YMuIUM92OhcewyhlncTj-8" edge="1">
          <mxGeometry width="100" height="100" relative="1" as="geometry">
            <Array as="points" />
            <mxPoint x="686" y="698" as="targetPoint" />
          </mxGeometry>
        </mxCell>
        <mxCell id="YMuIUM92OhcewyhlncTj-12" value="telefone" style="text;html=1;resizable=0;labelBackgroundColor=default;align=center;verticalAlign=middle;fontStyle=1;fontColor=#333333;fontSize=13.3;" parent="YMuIUM92OhcewyhlncTj-11" vertex="1">
          <mxGeometry relative="1" as="geometry">
            <mxPoint x="3" y="-15" as="offset" />
          </mxGeometry>
        </mxCell>
        <mxCell id="YMuIUM92OhcewyhlncTj-13" value="" style="html=1;jettySize=18;whiteSpace=wrap;fontSize=13;strokeColor=#5E5E5E;strokeWidth=1.5;rounded=1;arcSize=12;edgeStyle=orthogonalEdgeStyle;startArrow=none;endArrow=none;exitX=-0.009;exitY=0.187;exitPerimeter=0;entryX=1.038;entryY=0.5;entryPerimeter=0;lucidId=F~jIOwM~H6Hq;" parent="1" source="YMuIUM92OhcewyhlncTj-8" edge="1">
          <mxGeometry width="100" height="100" relative="1" as="geometry">
            <Array as="points" />
            <mxPoint x="692.1399999999999" y="623" as="targetPoint" />
          </mxGeometry>
        </mxCell>
        <mxCell id="YMuIUM92OhcewyhlncTj-14" value="id" style="text;html=1;resizable=0;labelBackgroundColor=default;align=center;verticalAlign=middle;fontStyle=1;fontColor=#333333;fontSize=13.3;" parent="YMuIUM92OhcewyhlncTj-13" vertex="1">
          <mxGeometry relative="1" as="geometry">
            <mxPoint y="-15" as="offset" />
          </mxGeometry>
        </mxCell>
        <mxCell id="YMuIUM92OhcewyhlncTj-17" value="" style="html=1;overflow=block;blockSpacing=1;whiteSpace=wrap;ellipse;fontSize=13;spacing=3.8;strokeColor=#5e5e5e;strokeOpacity=100;fillOpacity=100;rounded=1;absoluteArcSize=1;arcSize=9;fillColor=#b8f5ed;strokeWidth=2.3;lucidId=F~jI9EstbD~K;" parent="1" vertex="1">
          <mxGeometry x="661" y="683" width="30" height="30" as="geometry" />
        </mxCell>
        <mxCell id="YMuIUM92OhcewyhlncTj-93" style="edgeStyle=orthogonalEdgeStyle;rounded=0;orthogonalLoop=1;jettySize=auto;html=1;exitX=1;exitY=0.75;exitDx=0;exitDy=0;endArrow=none;endFill=0;" parent="1" source="YMuIUM92OhcewyhlncTj-18" edge="1">
          <mxGeometry relative="1" as="geometry">
            <mxPoint x="1290" y="720" as="targetPoint" />
            <Array as="points">
              <mxPoint x="1229" y="720" />
            </Array>
          </mxGeometry>
        </mxCell>
        <mxCell id="YMuIUM92OhcewyhlncTj-18" value="departamento" style="html=1;overflow=block;blockSpacing=1;whiteSpace=wrap;fontSize=16.7;fontColor=#333333;spacing=3.8;strokeColor=#5e5e5e;strokeOpacity=100;rounded=1;absoluteArcSize=1;arcSize=9;strokeWidth=2.3;lucidId=T~jINjmDH2eq;" parent="1" vertex="1">
          <mxGeometry x="1111" y="600" width="118" height="121" as="geometry" />
        </mxCell>
        <mxCell id="YMuIUM92OhcewyhlncTj-19" value="Depósito" style="html=1;overflow=block;blockSpacing=1;whiteSpace=wrap;fontSize=16.7;fontColor=#333333;spacing=3.8;strokeColor=#5e5e5e;strokeOpacity=100;rounded=1;absoluteArcSize=1;arcSize=9;strokeWidth=2.3;lucidId=~~jI1~KkqKt5;" parent="1" vertex="1">
          <mxGeometry x="151" y="-56" width="118" height="121" as="geometry" />
        </mxCell>
        <mxCell id="YMuIUM92OhcewyhlncTj-20" value="" style="html=1;jettySize=18;whiteSpace=wrap;fontSize=13;strokeColor=#5E5E5E;strokeWidth=1.5;rounded=1;arcSize=12;edgeStyle=orthogonalEdgeStyle;startArrow=none;endArrow=none;exitX=-0.009;exitY=0.683;exitPerimeter=0;lucidId=~~jIitdZxBqa;" parent="1" source="YMuIUM92OhcewyhlncTj-19" edge="1">
          <mxGeometry width="100" height="100" relative="1" as="geometry">
            <Array as="points" />
            <mxPoint x="92" y="26" as="targetPoint" />
          </mxGeometry>
        </mxCell>
        <mxCell id="YMuIUM92OhcewyhlncTj-21" value="endereco" style="text;html=1;resizable=0;labelBackgroundColor=default;align=center;verticalAlign=middle;fontStyle=1;fontColor=#333333;fontSize=13.3;" parent="YMuIUM92OhcewyhlncTj-20" vertex="1">
          <mxGeometry relative="1" as="geometry">
            <mxPoint as="offset" />
          </mxGeometry>
        </mxCell>
        <mxCell id="YMuIUM92OhcewyhlncTj-22" value="" style="html=1;jettySize=18;whiteSpace=wrap;fontSize=13;strokeColor=#5E5E5E;strokeWidth=1.5;rounded=1;arcSize=12;edgeStyle=orthogonalEdgeStyle;startArrow=none;endArrow=none;exitX=-0.009;exitY=0.309;exitPerimeter=0;entryX=1.037;entryY=0.483;entryPerimeter=0;lucidId=~~jIXbPfPmAS;" parent="1" source="YMuIUM92OhcewyhlncTj-19" target="YMuIUM92OhcewyhlncTj-24" edge="1">
          <mxGeometry width="100" height="100" relative="1" as="geometry">
            <Array as="points" />
          </mxGeometry>
        </mxCell>
        <mxCell id="YMuIUM92OhcewyhlncTj-23" value="id" style="text;html=1;resizable=0;labelBackgroundColor=default;align=center;verticalAlign=middle;fontStyle=1;fontColor=#333333;fontSize=13.3;" parent="YMuIUM92OhcewyhlncTj-22" vertex="1">
          <mxGeometry relative="1" as="geometry">
            <mxPoint as="offset" />
          </mxGeometry>
        </mxCell>
        <mxCell id="YMuIUM92OhcewyhlncTj-24" value="" style="html=1;overflow=block;blockSpacing=1;whiteSpace=wrap;ellipse;fontSize=13;spacing=3.8;strokeColor=#5e5e5e;strokeOpacity=100;fillOpacity=100;rounded=1;absoluteArcSize=1;arcSize=9;fillColor=#e08fff;strokeWidth=2.3;lucidId=~~jIr-dlHwkN;" parent="1" vertex="1">
          <mxGeometry x="62" y="-34" width="30" height="30" as="geometry" />
        </mxCell>
        <mxCell id="YMuIUM92OhcewyhlncTj-25" value="" style="html=1;overflow=block;blockSpacing=1;whiteSpace=wrap;ellipse;fontSize=13;spacing=3.8;strokeColor=#5e5e5e;strokeOpacity=100;fillOpacity=100;rounded=1;absoluteArcSize=1;arcSize=9;fillColor=#b8f5ed;strokeWidth=2.3;lucidId=~~jIkVZ-K.KO;" parent="1" vertex="1">
          <mxGeometry x="62" y="11" width="30" height="30" as="geometry" />
        </mxCell>
        <mxCell id="YMuIUM92OhcewyhlncTj-26" value="peca" style="html=1;overflow=block;blockSpacing=1;whiteSpace=wrap;fontSize=16.7;fontColor=#333333;spacing=3.8;strokeColor=#5e5e5e;strokeOpacity=100;rounded=1;absoluteArcSize=1;arcSize=9;strokeWidth=2.3;lucidId=jakIE3K-4X~.;" parent="1" vertex="1">
          <mxGeometry x="150" y="270" width="118" height="120" as="geometry" />
        </mxCell>
        <mxCell id="YMuIUM92OhcewyhlncTj-27" value="" style="html=1;jettySize=18;whiteSpace=wrap;fontSize=13;strokeColor=#5E5E5E;strokeWidth=1.5;rounded=1;arcSize=12;edgeStyle=orthogonalEdgeStyle;startArrow=none;endArrow=none;exitX=-0.009;exitY=0.871;exitPerimeter=0;lucidId=jakIgKjDCaJv;" parent="1" source="YMuIUM92OhcewyhlncTj-26" edge="1">
          <mxGeometry width="100" height="100" relative="1" as="geometry">
            <Array as="points" />
            <mxPoint x="90" y="374" as="targetPoint" />
          </mxGeometry>
        </mxCell>
        <mxCell id="YMuIUM92OhcewyhlncTj-28" value="cor" style="text;html=1;resizable=0;labelBackgroundColor=default;align=center;verticalAlign=middle;fontStyle=1;fontColor=#333333;fontSize=13.3;" parent="YMuIUM92OhcewyhlncTj-27" vertex="1">
          <mxGeometry relative="1" as="geometry">
            <mxPoint y="-14" as="offset" />
          </mxGeometry>
        </mxCell>
        <mxCell id="YMuIUM92OhcewyhlncTj-29" value="" style="html=1;jettySize=18;whiteSpace=wrap;fontSize=13;strokeColor=#5E5E5E;strokeWidth=1.5;rounded=1;arcSize=12;edgeStyle=orthogonalEdgeStyle;startArrow=none;endArrow=none;exitX=-0.009;exitY=0.124;exitPerimeter=0;lucidId=jakIqDQ7FTtp;" parent="1" source="YMuIUM92OhcewyhlncTj-26" edge="1">
          <mxGeometry width="100" height="100" relative="1" as="geometry">
            <Array as="points" />
            <mxPoint x="90" y="284" as="targetPoint" />
          </mxGeometry>
        </mxCell>
        <mxCell id="YMuIUM92OhcewyhlncTj-30" value="id" style="text;html=1;resizable=0;labelBackgroundColor=default;align=center;verticalAlign=middle;fontStyle=1;fontColor=#333333;fontSize=13.3;" parent="YMuIUM92OhcewyhlncTj-29" vertex="1">
          <mxGeometry relative="1" as="geometry">
            <mxPoint y="-14" as="offset" />
          </mxGeometry>
        </mxCell>
        <mxCell id="YMuIUM92OhcewyhlncTj-31" value="" style="html=1;overflow=block;blockSpacing=1;whiteSpace=wrap;ellipse;fontSize=13;spacing=3.8;strokeColor=#5e5e5e;strokeOpacity=100;fillOpacity=100;rounded=1;absoluteArcSize=1;arcSize=9;fillColor=#e08fff;strokeWidth=2.3;lucidId=jakIp.l8Lxlc;" parent="1" vertex="1">
          <mxGeometry x="60" y="270" width="30" height="30" as="geometry" />
        </mxCell>
        <mxCell id="YMuIUM92OhcewyhlncTj-32" value="" style="html=1;overflow=block;blockSpacing=1;whiteSpace=wrap;ellipse;fontSize=13;spacing=3.8;strokeColor=#5e5e5e;strokeOpacity=100;fillOpacity=100;rounded=1;absoluteArcSize=1;arcSize=9;fillColor=#b8f5ed;strokeWidth=2.3;lucidId=jakIr9.R6tSW;" parent="1" vertex="1">
          <mxGeometry x="60" y="315" width="30" height="30" as="geometry" />
        </mxCell>
        <mxCell id="YMuIUM92OhcewyhlncTj-33" value="" style="html=1;overflow=block;blockSpacing=1;whiteSpace=wrap;ellipse;fontSize=13;spacing=3.8;strokeColor=#5e5e5e;strokeOpacity=100;fillOpacity=100;rounded=1;absoluteArcSize=1;arcSize=9;fillColor=#b8f5ed;strokeWidth=2.3;lucidId=jakIJq~OMCcw;" parent="1" vertex="1">
          <mxGeometry x="60" y="360" width="30" height="30" as="geometry" />
        </mxCell>
        <mxCell id="YMuIUM92OhcewyhlncTj-34" value="fornecedor" style="html=1;overflow=block;blockSpacing=1;whiteSpace=wrap;fontSize=16.7;fontColor=#333333;spacing=3.8;strokeColor=#5e5e5e;strokeOpacity=100;rounded=1;absoluteArcSize=1;arcSize=9;strokeWidth=2.3;lucidId=8akIa226I4ow;" parent="1" vertex="1">
          <mxGeometry x="511" y="435.5" width="118" height="121" as="geometry" />
        </mxCell>
        <mxCell id="YMuIUM92OhcewyhlncTj-35" value="" style="html=1;jettySize=18;whiteSpace=wrap;fontSize=13;strokeColor=#5E5E5E;strokeWidth=1.5;rounded=1;arcSize=12;edgeStyle=orthogonalEdgeStyle;startArrow=none;endArrow=none;exitX=1.009;exitY=0.618;exitPerimeter=0;entryX=-0.038;entryY=0.5;entryPerimeter=0;lucidId=8akIIobINzit;" parent="1" source="YMuIUM92OhcewyhlncTj-34" target="YMuIUM92OhcewyhlncTj-41" edge="1">
          <mxGeometry width="100" height="100" relative="1" as="geometry">
            <Array as="points" />
          </mxGeometry>
        </mxCell>
        <mxCell id="YMuIUM92OhcewyhlncTj-36" value=" " style="text;html=1;resizable=0;labelBackgroundColor=default;align=center;verticalAlign=middle;fontColor=default;fontSize=16;" parent="YMuIUM92OhcewyhlncTj-35" vertex="1">
          <mxGeometry x="0.5602539791409742" relative="1" as="geometry" />
        </mxCell>
        <mxCell id="YMuIUM92OhcewyhlncTj-37" value="endereco" style="text;html=1;resizable=0;labelBackgroundColor=default;align=center;verticalAlign=middle;fontStyle=1;fontColor=#333333;fontSize=13.3;" parent="YMuIUM92OhcewyhlncTj-35" vertex="1">
          <mxGeometry x="0.7004422196388003" relative="1" as="geometry">
            <mxPoint x="-21" y="-11" as="offset" />
          </mxGeometry>
        </mxCell>
        <mxCell id="YMuIUM92OhcewyhlncTj-38" value="" style="html=1;jettySize=18;whiteSpace=wrap;fontSize=13;strokeColor=#5E5E5E;strokeWidth=1.5;rounded=1;arcSize=12;edgeStyle=orthogonalEdgeStyle;startArrow=none;endArrow=none;exitX=1.009;exitY=0.241;exitPerimeter=0;entryX=-0.036;entryY=0.483;entryPerimeter=0;lucidId=8akIoKkd~wer;" parent="1" source="YMuIUM92OhcewyhlncTj-34" target="YMuIUM92OhcewyhlncTj-40" edge="1">
          <mxGeometry width="100" height="100" relative="1" as="geometry">
            <Array as="points" />
          </mxGeometry>
        </mxCell>
        <mxCell id="YMuIUM92OhcewyhlncTj-39" value="id" style="text;html=1;resizable=0;labelBackgroundColor=default;align=center;verticalAlign=middle;fontStyle=1;fontColor=#333333;fontSize=13.3;" parent="YMuIUM92OhcewyhlncTj-38" vertex="1">
          <mxGeometry relative="1" as="geometry">
            <mxPoint x="1" y="-14" as="offset" />
          </mxGeometry>
        </mxCell>
        <mxCell id="YMuIUM92OhcewyhlncTj-40" value="" style="html=1;overflow=block;blockSpacing=1;whiteSpace=wrap;ellipse;fontSize=13;spacing=3.8;strokeColor=#5e5e5e;strokeOpacity=100;fillOpacity=100;rounded=1;absoluteArcSize=1;arcSize=9;fillColor=#e08fff;strokeWidth=2.3;lucidId=8akIzjRjPwz1;" parent="1" vertex="1">
          <mxGeometry x="691" y="451" width="30" height="30" as="geometry" />
        </mxCell>
        <mxCell id="YMuIUM92OhcewyhlncTj-41" value="" style="html=1;overflow=block;blockSpacing=1;whiteSpace=wrap;ellipse;fontSize=13;spacing=3.8;strokeColor=#5e5e5e;strokeOpacity=100;fillOpacity=100;rounded=1;absoluteArcSize=1;arcSize=9;fillColor=#b8f5ed;strokeWidth=2.3;lucidId=8akIMGdwfp7d;" parent="1" vertex="1">
          <mxGeometry x="691" y="496" width="30" height="30" as="geometry" />
        </mxCell>
        <mxCell id="YMuIUM92OhcewyhlncTj-42" value="" style="html=1;jettySize=18;whiteSpace=wrap;fontSize=13;strokeColor=#5E5E5E;strokeWidth=1.5;rounded=1;arcSize=12;edgeStyle=orthogonalEdgeStyle;startArrow=none;endArrow=none;exitX=-0.009;exitY=0.5;exitPerimeter=0;entryX=1.037;entryY=0.492;entryPerimeter=0;lucidId=ikkI0fLx-E6I;" parent="1" source="YMuIUM92OhcewyhlncTj-26" target="YMuIUM92OhcewyhlncTj-32" edge="1">
          <mxGeometry width="100" height="100" relative="1" as="geometry">
            <Array as="points" />
          </mxGeometry>
        </mxCell>
        <mxCell id="YMuIUM92OhcewyhlncTj-43" value="peso" style="text;html=1;resizable=0;labelBackgroundColor=default;align=center;verticalAlign=middle;fontStyle=1;fontColor=#333333;fontSize=13.3;" parent="YMuIUM92OhcewyhlncTj-42" vertex="1">
          <mxGeometry relative="1" as="geometry">
            <mxPoint y="-10" as="offset" />
          </mxGeometry>
        </mxCell>
        <mxCell id="YMuIUM92OhcewyhlncTj-44" value="tem" style="html=1;overflow=block;blockSpacing=1;whiteSpace=wrap;rhombus;fontSize=16.7;fontColor=#333333;spacing=3.8;strokeColor=#5e5e5e;strokeOpacity=100;fillOpacity=0;rounded=1;absoluteArcSize=1;arcSize=9;fillColor=#000000;strokeWidth=2.3;lucidId=9nkIm35I-Jwh;" parent="1" vertex="1">
          <mxGeometry x="930" y="616" width="120" height="90" as="geometry" />
        </mxCell>
        <mxCell id="YMuIUM92OhcewyhlncTj-45" value="" style="html=1;jettySize=18;whiteSpace=wrap;fontSize=13;strokeColor=#5E5E5E;strokeWidth=1.5;rounded=1;arcSize=12;edgeStyle=orthogonalEdgeStyle;startArrow=none;endArrow=none;exitX=0.5;exitY=1.009;exitPerimeter=0;entryX=0.991;entryY=0.5;entryPerimeter=0;lucidId=DqkIitgrGft5;" parent="1" source="YMuIUM92OhcewyhlncTj-8" target="YMuIUM92OhcewyhlncTj-49" edge="1">
          <mxGeometry width="100" height="100" relative="1" as="geometry">
            <Array as="points">
              <mxPoint x="810" y="795" />
            </Array>
          </mxGeometry>
        </mxCell>
        <mxCell id="YMuIUM92OhcewyhlncTj-46" value="1" style="text;html=1;resizable=0;labelBackgroundColor=default;align=center;verticalAlign=middle;fontStyle=1;fontColor=#333333;fontSize=13.3;" parent="YMuIUM92OhcewyhlncTj-45" vertex="1">
          <mxGeometry x="-0.9126259852347132" relative="1" as="geometry">
            <mxPoint x="10" as="offset" />
          </mxGeometry>
        </mxCell>
        <mxCell id="YMuIUM92OhcewyhlncTj-47" value="" style="html=1;jettySize=18;whiteSpace=wrap;fontSize=13;strokeColor=#5E5E5E;strokeWidth=1.5;rounded=1;arcSize=12;edgeStyle=orthogonalEdgeStyle;startArrow=none;endArrow=none;exitX=0.009;exitY=0.5;exitPerimeter=0;entryX=0.5;entryY=1.009;entryPerimeter=0;lucidId=HqkIA-.pXedk;" parent="1" source="YMuIUM92OhcewyhlncTj-49" target="YMuIUM92OhcewyhlncTj-1" edge="1">
          <mxGeometry width="100" height="100" relative="1" as="geometry">
            <Array as="points" />
          </mxGeometry>
        </mxCell>
        <mxCell id="YMuIUM92OhcewyhlncTj-48" value="N" style="text;html=1;resizable=0;labelBackgroundColor=default;align=center;verticalAlign=middle;fontStyle=1;fontColor=#333333;fontSize=13.3;" parent="YMuIUM92OhcewyhlncTj-47" vertex="1">
          <mxGeometry x="0.8810910463161219" relative="1" as="geometry">
            <mxPoint x="21" y="-5" as="offset" />
          </mxGeometry>
        </mxCell>
        <mxCell id="YMuIUM92OhcewyhlncTj-49" value="pertence" style="html=1;overflow=block;blockSpacing=1;whiteSpace=wrap;rhombus;fontSize=16.7;fontColor=#333333;spacing=3.8;strokeColor=#5e5e5e;strokeOpacity=100;fillOpacity=0;rounded=1;absoluteArcSize=1;arcSize=9;fillColor=#000000;strokeWidth=2.3;lucidId=HqkIaE28fOwy;" parent="1" vertex="1">
          <mxGeometry x="450" y="750" width="120" height="90" as="geometry" />
        </mxCell>
        <mxCell id="YMuIUM92OhcewyhlncTj-50" value="atende" style="html=1;overflow=block;blockSpacing=1;whiteSpace=wrap;rhombus;fontSize=16.7;fontColor=#333333;spacing=3.8;strokeColor=#5e5e5e;strokeOpacity=100;fillOpacity=0;rounded=1;absoluteArcSize=1;arcSize=9;fillColor=#000000;strokeWidth=2.3;lucidId=WukI7734kmE~;" parent="1" vertex="1">
          <mxGeometry x="148" y="451" width="120" height="90" as="geometry" />
        </mxCell>
        <mxCell id="YMuIUM92OhcewyhlncTj-51" value="" style="html=1;jettySize=18;whiteSpace=wrap;fontSize=13;strokeColor=#5E5E5E;strokeWidth=1.5;rounded=1;arcSize=12;edgeStyle=orthogonalEdgeStyle;startArrow=none;endArrow=none;exitX=0.5;exitY=1.009;exitPerimeter=0;entryX=0.506;entryY=0.005;entryPerimeter=0;lucidId=HvkIkRtzUAPj;" parent="1" source="YMuIUM92OhcewyhlncTj-26" target="YMuIUM92OhcewyhlncTj-50" edge="1">
          <mxGeometry width="100" height="100" relative="1" as="geometry">
            <Array as="points" />
          </mxGeometry>
        </mxCell>
        <mxCell id="YMuIUM92OhcewyhlncTj-52" value="N" style="text;html=1;resizable=0;labelBackgroundColor=default;align=center;verticalAlign=middle;fontStyle=1;fontColor=#333333;fontSize=13.3;" parent="YMuIUM92OhcewyhlncTj-51" vertex="1">
          <mxGeometry x="-0.34822664574965756" relative="1" as="geometry">
            <mxPoint x="21" y="-6" as="offset" />
          </mxGeometry>
        </mxCell>
        <mxCell id="YMuIUM92OhcewyhlncTj-53" value="" style="html=1;jettySize=18;whiteSpace=wrap;fontSize=13;strokeColor=#5E5E5E;strokeWidth=1.5;rounded=1;arcSize=12;edgeStyle=orthogonalEdgeStyle;startArrow=none;endArrow=none;exitX=0.5;exitY=0.996;exitPerimeter=0;entryX=0.494;entryY=-0.009;entryPerimeter=0;lucidId=MvkIcAMhFRf_;" parent="1" source="YMuIUM92OhcewyhlncTj-50" target="YMuIUM92OhcewyhlncTj-1" edge="1">
          <mxGeometry width="100" height="100" relative="1" as="geometry">
            <Array as="points" />
          </mxGeometry>
        </mxCell>
        <mxCell id="YMuIUM92OhcewyhlncTj-54" value="N" style="text;html=1;resizable=0;labelBackgroundColor=default;align=center;verticalAlign=middle;fontStyle=1;fontColor=#333333;fontSize=13.3;" parent="YMuIUM92OhcewyhlncTj-53" vertex="1">
          <mxGeometry x="0.5235851959148146" relative="1" as="geometry">
            <mxPoint x="22" as="offset" />
          </mxGeometry>
        </mxCell>
        <mxCell id="YMuIUM92OhcewyhlncTj-55" value="" style="html=1;jettySize=18;whiteSpace=wrap;fontSize=13;strokeColor=#5E5E5E;strokeWidth=1.5;rounded=1;arcSize=12;edgeStyle=orthogonalEdgeStyle;startArrow=none;endArrow=none;exitX=0.5;exitY=1.009;exitPerimeter=0;entryX=0.991;entryY=0.5;entryPerimeter=0;lucidId=xykIh6G4ZGhu;" parent="1" source="YMuIUM92OhcewyhlncTj-34" target="YMuIUM92OhcewyhlncTj-57" edge="1">
          <mxGeometry width="100" height="100" relative="1" as="geometry">
            <Array as="points">
              <mxPoint x="570" y="661" />
            </Array>
          </mxGeometry>
        </mxCell>
        <mxCell id="YMuIUM92OhcewyhlncTj-56" value="N" style="text;html=1;resizable=0;labelBackgroundColor=default;align=center;verticalAlign=middle;fontStyle=1;fontColor=#333333;fontSize=13.3;" parent="YMuIUM92OhcewyhlncTj-55" vertex="1">
          <mxGeometry x="-0.8489741818061152" relative="1" as="geometry">
            <mxPoint x="-10" y="-4" as="offset" />
          </mxGeometry>
        </mxCell>
        <mxCell id="YMuIUM92OhcewyhlncTj-57" value="atende" style="html=1;overflow=block;blockSpacing=1;whiteSpace=wrap;rhombus;fontSize=16.7;fontColor=#333333;spacing=3.8;strokeColor=#5e5e5e;strokeOpacity=100;fillOpacity=0;rounded=1;absoluteArcSize=1;arcSize=9;fillColor=#000000;strokeWidth=2.3;lucidId=BykIxAKyOhK2;" parent="1" vertex="1">
          <mxGeometry x="345" y="616" width="120" height="90" as="geometry" />
        </mxCell>
        <mxCell id="YMuIUM92OhcewyhlncTj-58" value="" style="html=1;jettySize=18;whiteSpace=wrap;fontSize=13.3;fontColor=#333333;fontStyle=1;strokeColor=#5E5E5E;strokeWidth=1.5;rounded=1;arcSize=12;edgeStyle=orthogonalEdgeStyle;startArrow=none;endArrow=none;exitX=0.009;exitY=0.5;exitPerimeter=0;entryX=1.009;entryY=0.498;entryPerimeter=0;lucidId=NykIEq6t0YiN;" parent="1" source="YMuIUM92OhcewyhlncTj-57" target="YMuIUM92OhcewyhlncTj-1" edge="1">
          <mxGeometry width="100" height="100" relative="1" as="geometry">
            <Array as="points" />
          </mxGeometry>
        </mxCell>
        <mxCell id="YMuIUM92OhcewyhlncTj-59" value="N" style="text;html=1;resizable=0;labelBackgroundColor=default;align=center;verticalAlign=middle;fontStyle=1;fontColor=#333333;fontSize=13.3;" parent="YMuIUM92OhcewyhlncTj-58" vertex="1">
          <mxGeometry x="0.6937371586930285" relative="1" as="geometry">
            <mxPoint x="9" y="-15" as="offset" />
          </mxGeometry>
        </mxCell>
        <mxCell id="YMuIUM92OhcewyhlncTj-60" value="" style="html=1;jettySize=18;whiteSpace=wrap;fontSize=13;strokeColor=#5E5E5E;strokeWidth=1.5;rounded=1;arcSize=12;edgeStyle=orthogonalEdgeStyle;startArrow=none;endArrow=none;exitX=1.009;exitY=0.618;exitPerimeter=0;lucidId=yEkIzQCuoofd;" parent="1" source="YMuIUM92OhcewyhlncTj-18" edge="1">
          <mxGeometry width="100" height="100" relative="1" as="geometry">
            <Array as="points" />
            <mxPoint x="1321" y="675" as="targetPoint" />
          </mxGeometry>
        </mxCell>
        <mxCell id="YMuIUM92OhcewyhlncTj-61" value="setor" style="text;html=1;resizable=0;labelBackgroundColor=default;align=center;verticalAlign=middle;fontStyle=1;fontColor=#333333;fontSize=13.3;" parent="YMuIUM92OhcewyhlncTj-60" vertex="1">
          <mxGeometry x="-0.3830195303901629" relative="1" as="geometry">
            <mxPoint y="-15" as="offset" />
          </mxGeometry>
        </mxCell>
        <mxCell id="YMuIUM92OhcewyhlncTj-62" value="" style="html=1;jettySize=18;whiteSpace=wrap;fontSize=13;strokeColor=#5E5E5E;strokeWidth=1.5;rounded=1;arcSize=12;edgeStyle=orthogonalEdgeStyle;startArrow=none;endArrow=none;exitX=1.009;exitY=0.245;exitPerimeter=0;lucidId=yEkI-ZYUdOCv;" parent="1" source="YMuIUM92OhcewyhlncTj-18" edge="1">
          <mxGeometry width="100" height="100" relative="1" as="geometry">
            <Array as="points" />
            <mxPoint x="1321" y="630" as="targetPoint" />
          </mxGeometry>
        </mxCell>
        <mxCell id="YMuIUM92OhcewyhlncTj-63" value="id" style="text;html=1;resizable=0;labelBackgroundColor=default;align=center;verticalAlign=middle;fontStyle=1;fontColor=#333333;fontSize=13.3;" parent="YMuIUM92OhcewyhlncTj-62" vertex="1">
          <mxGeometry x="-0.36088906759555395" relative="1" as="geometry">
            <mxPoint y="-14" as="offset" />
          </mxGeometry>
        </mxCell>
        <mxCell id="YMuIUM92OhcewyhlncTj-64" value="" style="html=1;overflow=block;blockSpacing=1;whiteSpace=wrap;ellipse;fontSize=13;spacing=3.8;strokeColor=#5e5e5e;strokeOpacity=100;fillOpacity=100;rounded=1;absoluteArcSize=1;arcSize=9;fillColor=#e08fff;strokeWidth=2.3;lucidId=yEkIR-pPmUOF;" parent="1" vertex="1">
          <mxGeometry x="1291" y="615" width="30" height="30" as="geometry" />
        </mxCell>
        <mxCell id="YMuIUM92OhcewyhlncTj-65" value="" style="html=1;overflow=block;blockSpacing=1;whiteSpace=wrap;ellipse;fontSize=13;spacing=3.8;strokeColor=#5e5e5e;strokeOpacity=100;fillOpacity=100;rounded=1;absoluteArcSize=1;arcSize=9;fillColor=#b8f5ed;strokeWidth=2.3;lucidId=yEkIi3crk8Th;" parent="1" vertex="1">
          <mxGeometry x="1291" y="660" width="30" height="30" as="geometry" />
        </mxCell>
        <mxCell id="YMuIUM92OhcewyhlncTj-66" value="" style="html=1;jettySize=18;whiteSpace=wrap;fontSize=13;strokeColor=#5E5E5E;strokeWidth=1.5;rounded=1;arcSize=12;edgeStyle=orthogonalEdgeStyle;startArrow=none;endArrow=none;exitX=-0.009;exitY=0.5;exitPerimeter=0;entryX=0.99;entryY=0.494;entryPerimeter=0;lucidId=lIkIPIBk2DTm;" parent="1" source="YMuIUM92OhcewyhlncTj-18" target="YMuIUM92OhcewyhlncTj-44" edge="1">
          <mxGeometry width="100" height="100" relative="1" as="geometry">
            <Array as="points" />
          </mxGeometry>
        </mxCell>
        <mxCell id="YMuIUM92OhcewyhlncTj-67" value="1" style="text;html=1;resizable=0;labelBackgroundColor=default;align=center;verticalAlign=middle;fontStyle=1;fontColor=#333333;fontSize=13.3;" parent="YMuIUM92OhcewyhlncTj-66" vertex="1">
          <mxGeometry x="-0.5654559293314192" relative="1" as="geometry">
            <mxPoint y="-15" as="offset" />
          </mxGeometry>
        </mxCell>
        <mxCell id="YMuIUM92OhcewyhlncTj-68" value="" style="html=1;jettySize=18;whiteSpace=wrap;fontSize=13;strokeColor=#5E5E5E;strokeWidth=1.5;rounded=1;arcSize=12;edgeStyle=orthogonalEdgeStyle;startArrow=none;endArrow=none;exitX=0.5;exitY=-0.009;exitPerimeter=0;entryX=0.991;entryY=0.5;entryPerimeter=0;lucidId=2IkIhX5xWK.R;" parent="1" source="YMuIUM92OhcewyhlncTj-34" target="YMuIUM92OhcewyhlncTj-70" edge="1">
          <mxGeometry width="100" height="100" relative="1" as="geometry">
            <Array as="points">
              <mxPoint x="570" y="330" />
            </Array>
          </mxGeometry>
        </mxCell>
        <mxCell id="YMuIUM92OhcewyhlncTj-69" value="N" style="text;html=1;resizable=0;labelBackgroundColor=default;align=center;verticalAlign=middle;fontStyle=1;fontColor=#333333;fontSize=13.3;" parent="YMuIUM92OhcewyhlncTj-68" vertex="1">
          <mxGeometry x="-0.8633323644335296" relative="1" as="geometry">
            <mxPoint x="-20" y="-2" as="offset" />
          </mxGeometry>
        </mxCell>
        <mxCell id="YMuIUM92OhcewyhlncTj-70" value="fornece" style="html=1;overflow=block;blockSpacing=1;whiteSpace=wrap;rhombus;fontSize=16.7;fontColor=#333333;spacing=3.8;strokeColor=#5e5e5e;strokeOpacity=100;fillOpacity=0;rounded=1;absoluteArcSize=1;arcSize=9;fillColor=#000000;strokeWidth=2.3;lucidId=8IkIBPWdv~Yc;" parent="1" vertex="1">
          <mxGeometry x="360" y="285" width="120" height="90" as="geometry" />
        </mxCell>
        <mxCell id="YMuIUM92OhcewyhlncTj-71" value="" style="html=1;jettySize=18;whiteSpace=wrap;fontSize=13.3;fontColor=#333333;fontStyle=1;strokeColor=#5E5E5E;strokeWidth=1.5;rounded=1;arcSize=12;edgeStyle=orthogonalEdgeStyle;startArrow=none;endArrow=none;exitX=0.009;exitY=0.5;exitPerimeter=0;entryX=1.009;entryY=0.498;entryPerimeter=0;lucidId=-IkIb4ChYnIl;" parent="1" source="YMuIUM92OhcewyhlncTj-70" target="YMuIUM92OhcewyhlncTj-26" edge="1">
          <mxGeometry width="100" height="100" relative="1" as="geometry">
            <Array as="points" />
          </mxGeometry>
        </mxCell>
        <mxCell id="YMuIUM92OhcewyhlncTj-72" value="N" style="text;html=1;resizable=0;labelBackgroundColor=default;align=center;verticalAlign=middle;fontStyle=1;fontColor=#333333;fontSize=13.3;" parent="YMuIUM92OhcewyhlncTj-71" vertex="1">
          <mxGeometry x="0.6420569587717979" relative="1" as="geometry">
            <mxPoint x="5" y="-15" as="offset" />
          </mxGeometry>
        </mxCell>
        <mxCell id="YMuIUM92OhcewyhlncTj-73" value="contem" style="html=1;overflow=block;blockSpacing=1;whiteSpace=wrap;rhombus;fontSize=16.7;fontColor=#333333;spacing=3.8;strokeColor=#5e5e5e;strokeOpacity=100;fillOpacity=0;rounded=1;absoluteArcSize=1;arcSize=9;fillColor=#000000;strokeWidth=2.3;lucidId=HLkIobKTApkP;" parent="1" vertex="1">
          <mxGeometry x="149" y="130" width="120" height="90" as="geometry" />
        </mxCell>
        <mxCell id="YMuIUM92OhcewyhlncTj-74" value="" style="html=1;jettySize=18;whiteSpace=wrap;fontSize=13;strokeColor=#5E5E5E;strokeWidth=1.5;rounded=1;arcSize=12;edgeStyle=orthogonalEdgeStyle;startArrow=none;endArrow=none;exitX=0.5;exitY=1.009;exitPerimeter=0;entryX=0.506;entryY=0.005;entryPerimeter=0;lucidId=HLkI0S1aGNQE;" parent="1" source="YMuIUM92OhcewyhlncTj-19" target="YMuIUM92OhcewyhlncTj-73" edge="1">
          <mxGeometry width="100" height="100" relative="1" as="geometry">
            <Array as="points" />
          </mxGeometry>
        </mxCell>
        <mxCell id="YMuIUM92OhcewyhlncTj-75" value="1" style="text;html=1;resizable=0;labelBackgroundColor=default;align=center;verticalAlign=middle;fontStyle=1;fontColor=#333333;fontSize=13.3;" parent="YMuIUM92OhcewyhlncTj-74" vertex="1">
          <mxGeometry x="-0.34822664574965756" relative="1" as="geometry">
            <mxPoint x="10" y="-4" as="offset" />
          </mxGeometry>
        </mxCell>
        <mxCell id="YMuIUM92OhcewyhlncTj-76" value="" style="html=1;jettySize=18;whiteSpace=wrap;fontSize=13;strokeColor=#5E5E5E;strokeWidth=1.5;rounded=1;arcSize=12;edgeStyle=orthogonalEdgeStyle;startArrow=none;endArrow=none;exitX=0.5;exitY=0.996;exitPerimeter=0;lucidId=HLkIj6gFa-mh;" parent="1" source="YMuIUM92OhcewyhlncTj-73" edge="1">
          <mxGeometry width="100" height="100" relative="1" as="geometry">
            <Array as="points" />
            <mxPoint x="209" y="270" as="targetPoint" />
          </mxGeometry>
        </mxCell>
        <mxCell id="YMuIUM92OhcewyhlncTj-77" value="N" style="text;html=1;resizable=0;labelBackgroundColor=default;align=center;verticalAlign=middle;fontStyle=1;fontColor=#333333;fontSize=13.3;" parent="YMuIUM92OhcewyhlncTj-76" vertex="1">
          <mxGeometry x="0.5235851959148146" relative="1" as="geometry">
            <mxPoint x="21" as="offset" />
          </mxGeometry>
        </mxCell>
        <mxCell id="YMuIUM92OhcewyhlncTj-78" value="" style="html=1;jettySize=18;whiteSpace=wrap;fontSize=13.3;fontColor=#333333;fontStyle=1;strokeColor=#5E5E5E;strokeWidth=1.5;rounded=1;arcSize=12;edgeStyle=orthogonalEdgeStyle;startArrow=none;endArrow=none;exitX=0.009;exitY=0.5;exitPerimeter=0;entryX=1.009;entryY=0.504;entryPerimeter=0;lucidId=g3kIVmlv53q5;" parent="1" source="YMuIUM92OhcewyhlncTj-44" target="YMuIUM92OhcewyhlncTj-8" edge="1">
          <mxGeometry width="100" height="100" relative="1" as="geometry">
            <Array as="points" />
          </mxGeometry>
        </mxCell>
        <mxCell id="YMuIUM92OhcewyhlncTj-79" value="N" style="text;html=1;resizable=0;labelBackgroundColor=default;align=center;verticalAlign=middle;fontStyle=1;fontColor=#333333;fontSize=13.3;" parent="YMuIUM92OhcewyhlncTj-78" vertex="1">
          <mxGeometry x="0.49466332287431913" relative="1" as="geometry">
            <mxPoint y="-15" as="offset" />
          </mxGeometry>
        </mxCell>
        <mxCell id="YMuIUM92OhcewyhlncTj-80" value="" style="html=1;overflow=block;blockSpacing=1;whiteSpace=wrap;ellipse;fontSize=13;spacing=3.8;strokeColor=#5e5e5e;strokeOpacity=100;fillOpacity=100;rounded=1;absoluteArcSize=1;arcSize=9;fillColor=#b8f5ed;strokeWidth=2.3;lucidId=E4oIlte38M8N;" parent="1" vertex="1">
          <mxGeometry x="60" y="690" width="30" height="30" as="geometry" />
        </mxCell>
        <mxCell id="YMuIUM92OhcewyhlncTj-81" value="" style="html=1;jettySize=18;whiteSpace=wrap;fontSize=13;strokeColor=#5E5E5E;strokeWidth=1.5;rounded=1;arcSize=12;edgeStyle=orthogonalEdgeStyle;startArrow=none;endArrow=none;exitX=-0.009;exitY=0.879;exitPerimeter=0;entryX=1.034;entryY=0.529;entryPerimeter=0;lucidId=-4oIG-VaJm0u;" parent="1" source="YMuIUM92OhcewyhlncTj-1" target="YMuIUM92OhcewyhlncTj-80" edge="1">
          <mxGeometry width="100" height="100" relative="1" as="geometry">
            <Array as="points" />
          </mxGeometry>
        </mxCell>
        <mxCell id="YMuIUM92OhcewyhlncTj-82" value="numero" style="text;html=1;resizable=0;labelBackgroundColor=default;align=center;verticalAlign=middle;fontStyle=1;fontColor=#333333;fontSize=13.3;" parent="YMuIUM92OhcewyhlncTj-81" vertex="1">
          <mxGeometry relative="1" as="geometry">
            <mxPoint y="-8" as="offset" />
          </mxGeometry>
        </mxCell>
        <mxCell id="YMuIUM92OhcewyhlncTj-83" value="" style="html=1;jettySize=18;whiteSpace=wrap;fontSize=13;strokeColor=#5E5E5E;strokeWidth=1.5;rounded=1;arcSize=12;edgeStyle=orthogonalEdgeStyle;startArrow=none;endArrow=none;exitX=0.01;exitY=1;exitPerimeter=0;lucidId=v5oIFGTG-_5b;" parent="1" source="YMuIUM92OhcewyhlncTj-8" edge="1">
          <mxGeometry width="100" height="100" relative="1" as="geometry">
            <Array as="points">
              <mxPoint x="752" y="740" />
              <mxPoint x="690" y="740" />
            </Array>
            <mxPoint x="690" y="735" as="targetPoint" />
          </mxGeometry>
        </mxCell>
        <mxCell id="YMuIUM92OhcewyhlncTj-84" value="numero" style="text;html=1;resizable=0;labelBackgroundColor=default;align=center;verticalAlign=middle;fontStyle=1;fontColor=#333333;fontSize=13.3;" parent="YMuIUM92OhcewyhlncTj-83" vertex="1">
          <mxGeometry x="-0.8122396671240673" relative="1" as="geometry">
            <mxPoint x="-31" as="offset" />
          </mxGeometry>
        </mxCell>
        <mxCell id="YMuIUM92OhcewyhlncTj-85" value="" style="html=1;overflow=block;blockSpacing=1;whiteSpace=wrap;ellipse;fontSize=13;spacing=3.8;strokeColor=#5e5e5e;strokeOpacity=100;fillOpacity=100;rounded=1;absoluteArcSize=1;arcSize=9;fillColor=#b8f5ed;strokeWidth=2.3;lucidId=D5oILuRqysI.;" parent="1" vertex="1">
          <mxGeometry x="661" y="721" width="30" height="30" as="geometry" />
        </mxCell>
        <mxCell id="YMuIUM92OhcewyhlncTj-86" value="" style="html=1;jettySize=18;whiteSpace=wrap;fontSize=13;strokeColor=#5E5E5E;strokeWidth=1.5;rounded=1;arcSize=12;edgeStyle=orthogonalEdgeStyle;startArrow=none;endArrow=none;exitX=0.009;exitY=1;exitPerimeter=0;lucidId=e6oIJlZ5j.lJ;" parent="1" source="YMuIUM92OhcewyhlncTj-26" edge="1">
          <mxGeometry width="100" height="100" relative="1" as="geometry">
            <Array as="points">
              <mxPoint x="151" y="420" />
            </Array>
            <mxPoint x="90" y="420" as="targetPoint" />
          </mxGeometry>
        </mxCell>
        <mxCell id="YMuIUM92OhcewyhlncTj-87" value="numero" style="text;html=1;resizable=0;labelBackgroundColor=default;align=center;verticalAlign=middle;fontStyle=1;fontColor=#333333;fontSize=13.3;" parent="YMuIUM92OhcewyhlncTj-86" vertex="1">
          <mxGeometry x="-0.2464158810262813" relative="1" as="geometry">
            <mxPoint x="-27" y="-15" as="offset" />
          </mxGeometry>
        </mxCell>
        <mxCell id="YMuIUM92OhcewyhlncTj-88" value="" style="html=1;overflow=block;blockSpacing=1;whiteSpace=wrap;ellipse;fontSize=13;spacing=3.8;strokeColor=#5e5e5e;strokeOpacity=100;fillOpacity=100;rounded=1;absoluteArcSize=1;arcSize=9;fillColor=#b8f5ed;strokeWidth=2.3;lucidId=t6oII-pxexqN;" parent="1" vertex="1">
          <mxGeometry x="60" y="405" width="30" height="30" as="geometry" />
        </mxCell>
        <mxCell id="YMuIUM92OhcewyhlncTj-89" value="" style="html=1;overflow=block;blockSpacing=1;whiteSpace=wrap;ellipse;fontSize=13;spacing=3.8;strokeColor=#5e5e5e;strokeOpacity=100;fillOpacity=100;rounded=1;absoluteArcSize=1;arcSize=9;fillColor=#b8f5ed;strokeWidth=2.3;lucidId=g7oIt2c-4e0e;" parent="1" vertex="1">
          <mxGeometry x="62" y="56" width="30" height="30" as="geometry" />
        </mxCell>
        <mxCell id="YMuIUM92OhcewyhlncTj-90" value="" style="html=1;jettySize=18;whiteSpace=wrap;fontSize=13;strokeColor=#5E5E5E;strokeWidth=1.5;rounded=1;arcSize=12;edgeStyle=orthogonalEdgeStyle;startArrow=none;endArrow=none;exitX=0.023;exitY=1.007;exitPerimeter=0;lucidId=u7oIdkPtmIdf;" parent="1" source="YMuIUM92OhcewyhlncTj-19" edge="1">
          <mxGeometry width="100" height="100" relative="1" as="geometry">
            <Array as="points">
              <mxPoint x="154" y="80" />
            </Array>
            <mxPoint x="90" y="80" as="targetPoint" />
          </mxGeometry>
        </mxCell>
        <mxCell id="YMuIUM92OhcewyhlncTj-91" value="numero" style="text;html=1;resizable=0;labelBackgroundColor=default;align=center;verticalAlign=middle;fontStyle=1;fontColor=#333333;fontSize=13.3;" parent="YMuIUM92OhcewyhlncTj-90" vertex="1">
          <mxGeometry x="0.43564252969414485" relative="1" as="geometry">
            <mxPoint x="13" y="-12" as="offset" />
          </mxGeometry>
        </mxCell>
        <mxCell id="YMuIUM92OhcewyhlncTj-94" value="" style="html=1;overflow=block;blockSpacing=1;whiteSpace=wrap;ellipse;fontSize=13;spacing=3.8;strokeColor=#5e5e5e;strokeOpacity=100;fillOpacity=100;rounded=1;absoluteArcSize=1;arcSize=9;fillColor=#b8f5ed;strokeWidth=2.3;lucidId=yEkIi3crk8Th;" parent="1" vertex="1">
          <mxGeometry x="1291" y="700" width="30" height="30" as="geometry" />
        </mxCell>
        <mxCell id="YMuIUM92OhcewyhlncTj-98" value="numero" style="text;html=1;align=center;verticalAlign=middle;resizable=0;points=[];autosize=1;strokeColor=none;fillColor=none;" parent="1" vertex="1">
          <mxGeometry x="1229" y="691" width="60" height="30" as="geometry" />
        </mxCell>
        <mxCell id="YMuIUM92OhcewyhlncTj-103" value="" style="html=1;overflow=block;blockSpacing=1;whiteSpace=wrap;ellipse;fontSize=13;spacing=3.8;strokeColor=#5e5e5e;strokeOpacity=100;fillOpacity=100;rounded=1;absoluteArcSize=1;arcSize=9;fillColor=#e08fff;strokeWidth=2.3;lucidId=F~jIQ1pe0tPX;" parent="1" vertex="1">
          <mxGeometry x="661" y="610" width="30" height="30" as="geometry" />
        </mxCell>
        <mxCell id="YMuIUM92OhcewyhlncTj-104" value="" style="html=1;overflow=block;blockSpacing=1;whiteSpace=wrap;ellipse;fontSize=13;spacing=3.8;strokeColor=#5e5e5e;strokeOpacity=100;fillOpacity=100;rounded=1;absoluteArcSize=1;arcSize=9;fillColor=#b8f5ed;strokeWidth=2.3;lucidId=D5oILuRqysI.;" parent="1" vertex="1">
          <mxGeometry x="661" y="645" width="30" height="30" as="geometry" />
        </mxCell>
      </root>
    </mxGraphModel>
  </diagram>
  <diagram id="L8gyeZjUJBiMU8J1NYBh" name="Página-2">
    <mxGraphModel dx="1434" dy="764" grid="1" gridSize="10" guides="1" tooltips="1" connect="1" arrows="1" fold="1" page="1" pageScale="1" pageWidth="827" pageHeight="1169" math="0" shadow="0">
      <root>
        <mxCell id="0" />
        <mxCell id="1" parent="0" />
      </root>
    </mxGraphModel>
  </diagram>
</mxfile>
